<svg version="1.2" xmlns="http://www.w3.org/2000/svg" viewBox="0 0 1162 1356" width="1162" height="1356">
	<title>booykilo-ai</title>
	<style>
		.s0 { fill: #010001 } 
	</style>
	<g id="_Artboards_">
	</g>
	<g id="New Layer">
		<g id="&lt;Group&gt;">
			<path id="&lt;Compound Path&gt;" fill-rule="evenodd" class="s0" d="m584.8 0c8.2 0 9.6 0.8 18.8 11 20.2 22 23.8 53 8 69l-6.6 6.6-23.4 0.6-23.4 0.8-4.8-6.6c-2.8-3.4-6-9.8-7.4-14.2-5.4-16.8 4-43.2 20.8-58.8 7.8-7.2 10.4-8.4 18-8.4zm-9.2 25.4c-8 9.4-10.2 22-4.4 26.8 2.8 2.4 4 1.8 9-4 6.6-8.2 9-16.4 5.8-22-2.6-5.2-6.4-5.4-10.4-0.8z"/>
			<path id="&lt;Path&gt;" class="s0" d="m375.2 85.2q-55.5 8.7-112.2 47.4c-12.2 8.2-28.8 18.4-37 22.6-13.4 6.8-16.6 7.6-30.4 7.8-14.2 0-15.8-0.4-21.4-5.8-7.8-7.6-8.6-18.2-1.6-24.8 6.2-5.8 9.4-5.6 18.4 1.6 4.2 3.4 8.6 5.8 9.8 5.4 1.2-0.4 3.8-3.8 5.8-7.8 3.2-6.6 3.4-8 0.6-14.4-5-12.2-20-18.8-36.6-16.2-6.8 1-11.4 3.4-18 9.6-11 10.2-14.6 18.4-14.6 34.2 0 17.6 4.8 30.2 16 41.4 10.6 10.6 22 14.4 42.8 14.2 18 0 33.6-6.6 71.2-30.4 18.2-11.4 39.4-23.6 47-27.2 37.8-17.6 93-23 135.4-13.6 7.8 1.8 25.4 9 41.4 17 15.2 7.6 28.4 13.8 29 13.8 0.6 0 1.2-4.6 1.2-10 0-8.6 2.8-19.8 9-34.6 1.8-4.4-11-10.4-44-20.4-42-12.6-74.8-15.6-111.8-9.8z"/>
			<path id="&lt;Path&gt;" class="s0" d="m720 85c-16.2 3-65.8 17.2-77 22-3.8 1.4-7 3.6-7 4.4 0 0.8 2.2 7.8 5 15.6 2.8 8.2 5 18.6 5 24.8v10.6l4.6-3.2c12.4-9 39.8-22.4 56.2-27.6 29.2-9.6 74.2-9.6 113.2-0.2 19.2 4.6 50 19.8 78 38.6 27.6 18.6 40.4 24.6 60.8 28.2 23.4 4 42.4-0.6 58-14.2 11.4-10.2 16-20.4 16-37 0-11.8-0.8-15.6-5.2-23.2-14.2-24.2-38.8-31.2-57.4-16.2-8.6 6.8-10.8 18.2-5 24.6 4.4 4.8 7 4.8 15.4-0.2 12.8-7.6 24 1.6 19.6 16-3.2 10.8-8.4 14.6-21.8 15.6-18.2 1.2-34.4-5.6-67.6-28.2-54.4-37.2-92.8-51-146.8-52.4-20.2-0.6-33.6 0-44 2z"/>
			<path id="&lt;Compound Path&gt;" fill-rule="evenodd" class="s0" d="m586.2 114c10.2 0 12 0.6 20.4 8 21.8 19.4 19.6 49.8-4.8 62.6-9.4 5-31.4 4-39.2-1.8-20.6-15-17.8-48.4 5.2-64 5.4-3.6 9.8-4.8 18.4-4.8zm-12.2 37.4c0 4.8 6 10.6 10.8 10.6 9.8 0 14.2-8.8 9.2-18.2-4.4-8.2-20-2.4-20 7.6z"/>
			<path id="&lt;Path&gt;" class="s0" d="m594 206.4c-9 3.2-13 3.6-21.4 2l-10.6-1.8 0.2 8.2c0.2 7.4 1.2 9.2 11.2 18l11.2 9.6 4.6-6c3-3.6 8.2-7 13.8-8.6 7.4-2.2 9-3.6 9-7.4 0-4.2-5-18.6-6.4-18.2-0.4 0.2-5.6 2-11.6 4.2z"/>
			<path id="&lt;Path&gt;" class="s0" d="m152.2 266.8c-24.4 47.4-69.8 139.6-96.2 195.2-39.6 83.6-38.6 81-27.4 83 3.4 0.6 10 1.4 14.2 1.6l8 0.4 6.4-15.4c7-16.4 16-35.4 55.6-116.2 13.8-28.4 25.2-52 25.2-52.6 0-3 42-84.8 42.4-82.6 0.4 1.6 0.6 60.6 0.6 131.2 0 70.6 0.8 129 1.6 129.8 1.6 1.6 27.2 4 27.6 2.6 0-0.4 0.6-57.8 1-127.6 0.6-73.2 1.8-128.2 2.8-130 1-1.8 2-2.2 2-0.8 0 1.2 11.8 26.2 26 55.4 14.4 29.4 26 53.8 26 54.2 0 0.6 16.6 34.8 36.8 76l37 75h13.6c7.4 0 14.8-0.8 16.2-1.6 1.8-1.2-5.4-17.4-27.6-62-16.4-33.2-30-60.8-30-61.2 0-0.4-16.2-34-36.2-74.6-19.8-40.4-41.2-83.8-47.2-96.2-6-12.6-12-23-13.4-23.4-1.2-0.4-11.4-1-22.6-1.6l-20.6-0.8z"/>
			<path id="&lt;Path&gt;" class="s0" d="m939.2 240.8c-4.4 9-11.2 23.4-15.2 32.2-4 8.8-34 69.6-66.4 135-32.4 65.4-60.2 122.4-61.8 126.4-1.6 4.8-1.8 8.2-0.8 9.4 1.2 1 8 2.2 15.4 2.8l13.4 1 4.2-11c2.2-5.8 4-11.2 4-11.8 0-0.4 27.4-56 61-123.2 49.4-99.2 61-121.2 61.2-115.6 0.2 3.8 0.4 62.2 0.6 129.6 0.2 106.6 0.6 122.8 3.2 124.4 3.6 2.4 23.4 2.6 24.8 0.4 0.6-1 1.4-58.6 2-128 1-116.4 2.2-142.8 6-127.6 0.6 2.8 13.8 31.2 29 62.8 15.2 31.6 39 81.2 53 110.4 13.8 29.2 29 60.6 33.6 70l8.6 17 15.6 0.6c11.8 0.4 15.4 0 15.4-2.2 0-1.4-7.8-18.8-17.2-38.4-27-56.2-57.4-120-93.2-195-18.2-38-34.8-72.4-37-76.8l-4-7.8-23.8-0.2-23.8-0.4z"/>
			<path id="&lt;Compound Path&gt;" fill-rule="evenodd" class="s0" d="m533.4 251c13.2 4 32.4 18 41.8 30.8l7.6 10.2 14-14.2c9.8-9.8 18.6-16.2 29-21.4 13.6-6.6 16-7.2 32.2-7.2 16.2 0 18.6 0.6 32.6 7.4 18 8.8 31.2 22.6 38 39.4 3.6 9.2 4.4 15 4.4 35 0 22-0.4 24.8-5.2 34-11.2 21.6-24.2 39.2-45.8 61.6-30.4 31.8-92.2 83.4-99.6 83.4-6.4 0-51-34.8-77.8-60.8-31-30-50-52-57.6-67.2-14.2-27.8-16.8-66-6.2-89.4 8.4-18.6 29.2-36.6 49.2-42.8 8.6-2.6 32.8-2 43.4 1.2zm-38.4 26.8c-10.8 4.8-21 16.6-21 24.4 0 5 1.2 6.6 7 9 8.4 3.4 8.6 3.2 24.8-11.4 13.2-12 14.4-15.6 8.2-21.8-5-5-8.6-5-19-0.2zm-27 60.2c-4.8 4.8-5 6.4-0.8 15.2 3.6 7.6 8.8 10 14.8 6.8 4.8-2.6 5.2-9.2 1.2-19-3.4-8.2-9-9.2-15.2-3z"/>
			<path id="&lt;Path&gt;" class="s0" d="m601.8 534.8c-3.8 2.6-10.6 6-15.2 7.2-7.8 2.4-8.8 2.2-19.4-4-6.2-3.4-12.6-6-14-5.4-2.2 0.8-2.8 15-3.6 69.8-0.6 37.8-0.6 69.8 0 71 0.6 2 9.2 2.6 34 2.6h33l-1.2-34.6c-0.8-18.8-1.4-51.8-1.4-73 0-42.4 0.2-42-12.2-33.6z"/>
			<path id="&lt;Compound Path&gt;" fill-rule="evenodd" class="s0" d="m384 578.6c7.8 3.8 7.4 13.2-1.2 38.6-11.8 35-28.6 60.4-60.2 90.8-15.6 15-21.4 19-41 28.6-35 17.4-48 20.4-87.6 20.4-39.4 0-48.6-2-81.6-18-38.6-18.6-56.2-32.6-73.8-58.4-25.6-37.4-42.2-80.2-37.8-97.4 0.8-3.6 3.2-5.6 7.8-7 10-3 369-0.6 375.4 2.4zm-334.6 40.8c-3.2 3-0.8 14.2 6 28.4 17.2 35.8 65.8 67.4 110.6 71.4 12 1.2 14 0.8 15.2-2 0.8-1.8 1-3.8 0.4-4.2-0.4-0.6-8.8-3.2-18.8-6-27.8-7.8-48.6-19.4-67.4-36.8-18-17-27.4-30.2-27.4-38.8 0-3-1-7.4-2-9.6-2.2-3.8-13.6-5.6-16.6-2.4z"/>
			<path id="&lt;Compound Path&gt;" fill-rule="evenodd" class="s0" d="m1077.6 575.8c75.6 1.2 78.8 1.4 81.8 5.2 4.4 5.8 2.2 19.8-7 47.4-4.8 14.4-11.6 29.6-17.6 39-12 19.4-39.2 47.2-58.2 59.4-46.4 29.8-103.4 39.8-154 27-18.2-4.6-51-20.8-68.4-33.6-34.8-25.8-63-66.4-74.2-106.8-5-17.6-5-27.6-0.4-33.2 3-3.6 6-4.2 22.4-4.8 35.2-1 196.4-1 275.6 0.4zm-252.8 43.2c-7 10.6 4.4 33.2 30.4 60 13.2 13.6 19.2 18.2 34.6 26 29.4 14.8 68.2 22.4 71.6 14 0.6-1.8 0.6-3.6 0.2-4.2-0.6-0.6-9.6-3.2-19.8-5.8-49-12.8-87.6-44.4-96.8-79-1.4-5.6-3.8-11.6-5-13.2-3.8-4.4-11.6-3.4-15.2 2.2z"/>
			<path id="&lt;Path&gt;" class="s0" d="m528 709c-3 3.2-4.8 8.2-5.6 15-0.8 9.6-0.6 10.4 7.2 18l8 8h43.4c47.8 0 53.2-1 59.6-11.8 3.8-6.6 4.4-18.4 1.2-24.6-4.4-8.4-12.8-9.6-62.4-9.6h-46.8z"/>
			<path id="&lt;Path&gt;" class="s0" d="m1131.6 751.4c-4.6 5.2-9 14.6-10.6 22.6-6.4 31-30.6 94.6-48.6 128-39.6 73.6-73.8 120-120.6 164.4-62 58.8-113 90.6-183.8 114.4-55.6 18.8-103.8 26.8-170.4 28.6-81 2.2-152-8.6-213.2-32.6-127.2-49.6-227-144-294.4-278.6-17-34.2-25-53.8-40-97.6-7.6-22.8-15.6-43-17.6-45-11-10.8-22.4-4.2-22.4 12.6 0 10.8 8.8 53.4 17 81.8 27.2 93.8 79.4 182 149 252 25 25.2 40.8 38 73 59.4 71.2 47.2 145.8 78.4 217 90.4 120 20.2 234.4 10 335.6-30 52.4-20.8 122.6-63 164.4-99 64.8-56 123.6-142.2 154.6-226.8 13-35.2 25-76.4 27.4-93.6 1-8 2.8-18.2 4-23 3.2-13.6 2.4-23-2-27.4-5-5-14.4-5.2-18.4-0.6z"/>
			<path id="&lt;Path&gt;" class="s0" d="m557.4 777.4l-9.6 0.8 0.6 76.8c0.4 42.2 1 77.2 1.6 77.6 0.6 0.6 15.8 1.4 33.8 1.6l33 0.6 0.4-79.4 0.4-79.4-25.2 0.4c-14 0.2-29.8 0.6-35 1z"/>
			<path id="&lt;Path&gt;" class="s0" d="m531.2 961.8c-12.2 2.6-18.2 19.8-12.4 34.8 1.8 4.6 6.4 12 10.2 16.2l7 7.8 47.4-0.2h47.6l8.6-12.4c7-10.4 8.4-13.8 8.4-22.2 0-12-4.4-21.2-11.2-23.8-5.6-2.2-96.2-2.4-105.6-0.2z"/>
			<path id="&lt;Path&gt;" class="s0" d="m578 1048.2c-64.4 0.8-121 2-125.8 2.6-17.6 2.4-30.2 15.4-30.2 31v8.2h159.6c121.4 0 160.2-0.6 162-2.4 3.8-3.8 2.8-15.8-2-22.6-8.2-12.2-23-19.4-38.6-18.6-4.4 0.2-60.6 1-125 1.8z"/>
			<path id="&lt;Path&gt;" class="s0" d="m345 1122.4l-5.6 4.4 5.4 4.4c2.8 2.6 10.8 6.4 17.8 8.6 6.8 2 23.4 8 36.6 13 38.6 14.4 51.6 15.6 176 15.4 57.4-0.2 112.8-1 123.2-2.2 26.6-2.6 47.6-8 83.6-21.2 17-6.2 32.6-11.6 34.6-12.2 5.4-1.6 4-8.2-2.6-11.6-5-2.6-33.4-3-234.6-3h-228.8z"/>
			<path id="&lt;Path&gt;" class="s0" d="m370.6 1295.8c-7.8 5-10.2 13.4-5.6 22.2 8.2 16 34.8 12.2 38.2-5.4 1.2-5.6 0.2-7.6-5.8-13.6-8.2-8.2-16.8-9.2-26.8-3.2z"/>
			<path id="&lt;Path&gt;" class="s0" d="m765 1293.8c-12.4 5.2-16 22.2-6.4 31.6 3.6 3.8 7.2 5.2 13.4 5.4 7 0.2 9.2-0.8 14.2-6.4 10.2-11.2 6.8-25-7.4-30.4-6-2.4-8.4-2.4-13.8-0.2z"/>
			<path id="&lt;Path&gt;" class="s0" d="m493 1305.6c-8.4 5.2-11.8 12.6-10.4 21.8 1.8 10.6 9.2 16.6 20.6 16.6 23.4 0 29.2-30.2 7.6-39.2-8.6-3.6-10.6-3.6-17.8 0.8z"/>
			<path id="&lt;Path&gt;" class="s0" d="m657.6 1307.2c-15.4 8.2-12 31 5.4 36.8 20.8 6.8 36.6-18.8 21.2-34.2-6.8-6.6-17.4-7.8-26.6-2.6z"/>
			<path id="&lt;Path&gt;" class="s0" d="m575.8 1308.8c-8.2 4.6-11.8 12-11.8 23.4 0 9 0.8 11 6.8 17 5.4 5.4 8.4 6.8 14.8 6.8 21.6 0 31.8-28.6 15.6-43.8-6-5.6-18.4-7.2-25.4-3.4z"/>
		</g>
	</g>
	<g id="MasterLayer 1">
	</g>
</svg>